<?xml version="1.0" standalone="no"?><!DOCTYPE svg PUBLIC "-//W3C//DTD SVG 1.1//EN" "http://www.w3.org/Graphics/SVG/1.1/DTD/svg11.dtd"><svg t="1661173932851" class="icon" viewBox="0 0 1024 1024" version="1.1" xmlns="http://www.w3.org/2000/svg" p-id="977" width="80" height="80" xmlns:xlink="http://www.w3.org/1999/xlink"><defs><style type="text/css">@font-face { font-family: feedback-iconfont; src: url("//at.alicdn.com/t/font_1031158_u69w8yhxdu.woff2?t=1630033759944") format("woff2"), url("//at.alicdn.com/t/font_1031158_u69w8yhxdu.woff?t=1630033759944") format("woff"), url("//at.alicdn.com/t/font_1031158_u69w8yhxdu.ttf?t=1630033759944") format("truetype"); }
</style></defs><path d="M916.945455 618.821818a460.8 460.8 0 0 0 3.723636-50.967273 410.065455 410.065455 0 0 0-256-379.810909A152.669091 152.669091 0 0 0 620.683636 93.090909a155.461818 155.461818 0 0 0-265.076363 94.952727 405.876364 405.876364 0 0 0-249.018182 446.603637 155.461818 155.461818 0 0 0 97.512727 276.48 155.461818 155.461818 0 0 0 63.534546-13.498182A406.807273 406.807273 0 0 0 510.138182 977.454545 409.832727 409.832727 0 0 0 768 886.458182a160.116364 160.116364 0 0 0 51.898182 9.309091 155.461818 155.461818 0 0 0 97.047273-276.945455zM510.603636 127.767273a74.705455 74.705455 0 0 1 52.363637 21.876363 74.007273 74.007273 0 0 1-52.363637 126.370909 74.24 74.24 0 0 1 0-148.247272zM204.101818 829.672727a74.24 74.24 0 0 1 0-148.247272 74.24 74.24 0 1 1 0 148.247272z m306.036364 66.56a327.912727 327.912727 0 0 1-177.803637-52.596363 155.461818 155.461818 0 0 0-128-243.665455 145.454545 145.454545 0 0 0-20.247272 1.629091 336.989091 336.989091 0 0 1-1.861818-34.210909 329.309091 329.309091 0 0 1 188.974545-297.192727 154.996364 154.996364 0 0 0 139.636364 87.272727 154.763636 154.763636 0 0 0 139.636363-87.272727 328.843636 328.843636 0 0 1 188.741818 297.658181v17.92a159.185455 159.185455 0 0 0-18.385454-1.163636A155.229091 155.229091 0 0 0 698.181818 837.818182a327.447273 327.447273 0 0 1-187.578182 59.345454zM819.898182 814.545455a74.24 74.24 0 1 1 0-148.247273 74.24 74.24 0 0 1 0 148.247273z" p-id="978" fill="#5989A5"></path></svg>