<?xml version="1.0" standalone="no"?><!DOCTYPE svg PUBLIC "-//W3C//DTD SVG 1.1//EN" "http://www.w3.org/Graphics/SVG/1.1/DTD/svg11.dtd"><svg t="1670299294916" class="icon" viewBox="0 0 1024 1024" version="1.1" xmlns="http://www.w3.org/2000/svg" p-id="11060" xmlns:xlink="http://www.w3.org/1999/xlink" width="100" height="100"><path d="M591.2576 270.4896a84.736 84.736 0 1 1-70.8608 131.2256l-188.0576 0.3584v570.0096H249.7536V360.8576l41.216-41.2672 223.5904-0.512c13.5168-28.672 42.8032-48.64 76.6976-48.64z m-20.1728-218.5728a308.3776 308.3776 0 0 1 11.5712 616.6016l-11.5712 0.2048H432.64v-82.6368l138.4448 0.0512a225.792 225.792 0 0 0 225.536-214.8864l0.256-10.9056a225.792 225.792 0 0 0-214.8352-225.5872l-10.9568-0.256h-320V51.8656h320z" fill="#000000" p-id="11061"></path></svg>